<?xml version="1.0" encoding="UTF-8"?>
<svg width="50px" height="36px" viewBox="0 0 50 36" version="1.1" xmlns="http://www.w3.org/2000/svg" xmlns:xlink="http://www.w3.org/1999/xlink">
    <!-- Generator: Sketch 51.3 (57544) - http://www.bohemiancoding.com/sketch -->
    <title>Group</title>
    <desc>Created with Sketch.</desc>
    <defs></defs>
    <g id="Page-1" stroke="none" stroke-width="1" fill="none" fill-rule="evenodd">
        <g id="Logo---Small" fill="#165D7E">
            <g id="Group">
                <path d="M21.8605524,14.2344 L22.0803548,23.2843355 C22.0830545,23.3974452 22.0666312,23.5100903 22.0319847,23.6173935 L19.0294435,32.8757806 C18.9007567,33.2720129 18.5412436,33.5391097 18.1365103,33.5391097 L16.8889235,33.5391097 C16.369002,33.5391097 15.9473953,33.9743613 15.9473953,34.5111097 L15.9473953,34.8896903 C15.9473953,35.426671 16.369002,35.8616903 16.8889235,35.8616903 L20.2578172,35.8616903 C20.6182301,35.8616903 20.9471463,35.6491742 21.1046301,35.3144903 L22.0844043,33.2320645 L24.7688283,27.2737161 C25.1060687,26.5251484 26.1364627,26.5239871 26.4752779,27.2716258 L29.1403539,33.1498452 C29.158802,33.1909548 29.1747753,33.2332258 29.187599,33.2766581 L29.751616,35.1749032 C29.8731035,35.5829806 30.238241,35.8616903 30.6517485,35.8616903 L35.0288984,35.8616903 C35.549045,35.8616903 35.9704266,35.426671 35.9704266,34.8896903 L35.9704266,34.6862323 C35.9704266,34.1754968 35.587741,33.7520903 35.0943667,33.7165548 L33.6351667,33.6115742 C33.2718291,33.5855613 32.9557366,33.3454065 32.8234502,32.9951613 L29.285464,23.6255226 C29.2429433,23.5131097 29.2211206,23.3932645 29.2211206,23.2724903 L29.2211206,14.2710968 C29.2211206,14.0667097 29.2836641,13.8674323 29.3995272,13.7018323 L35.4536548,5.05486452 C35.7470246,4.63563871 35.6712074,4.05267097 35.2808725,3.72843871 C34.8644403,3.38237419 34.2529532,3.4632 33.934386,3.90634839 L28.7106481,11.1755613 C28.5284168,11.4289548 28.2381966,11.5755097 27.9324531,11.5680774 L23.1235725,11.4526452 C22.7960062,11.4447484 22.496112,11.261729 22.331429,10.9690839 L18.5513676,4.25125161 C18.3016433,3.80763871 17.6018752,3.28389677 17.157096,3.51336774 L16.9800392,3.60092903 C16.4880148,3.8547871 16.4882397,4.83979355 16.7735104,5.32544516 L21.7244414,13.7547871 C21.8094826,13.8997161 21.8565028,14.0650839 21.8605524,14.2344" id="Fill-1"></path>
                <path d="M6.76199475,3.70776774 C11.0669271,3.75677419 15.3720845,3.80554839 19.6769269,3.85455484 C26.5861915,3.93305806 33.4954561,4.01156129 40.4044957,4.09029677 L45.1557822,4.14418065 C45.5902126,4.14905806 45.5904375,3.45228387 45.1557822,3.44740645 C40.8508498,3.3984 36.5456925,3.34962581 32.2407601,3.30061935 C25.3314955,3.22211613 18.4222309,3.1436129 11.5132812,3.06510968 L6.76199475,3.01099355 C6.32756442,3.00611613 6.32733944,3.70289032 6.76199475,3.70776774" id="Fill-2"></path>
                <path d="M46.0799872,1.04469677 L46.0799872,6.57545806 C46.0799872,7.02394839 46.7549178,7.02464516 46.7549178,6.57545806 L46.7549178,1.04469677 C46.7549178,0.59643871 46.0799872,0.595509677 46.0799872,1.04469677" id="Fill-3"></path>
                <path d="M47.6725985,1.86224516 L47.6725985,5.82340645 C47.6725985,6.27189677 48.3475291,6.27259355 48.3475291,5.82340645 L48.3475291,1.86224516 C48.3475291,1.4139871 47.6725985,1.41305806 47.6725985,1.86224516" id="Fill-4"></path>
                <path d="M48.9619409,2.48864516 L48.9619409,5.19747097 C48.9619409,5.64572903 49.6368715,5.64642581 49.6368715,5.19747097 L49.6368715,2.48864516 C49.6368715,2.0403871 48.9619409,2.03945806 48.9619409,2.48864516" id="Fill-5"></path>
                <path d="M5.65684088,6.09027097 C5.65774079,4.24660645 5.6586407,2.40294194 5.6595406,0.559509677 C5.65976558,0.111019355 4.98483497,0.110322581 4.98461,0.559509677 C4.98371009,2.40294194 4.98281018,4.24660645 4.98191028,6.09027097 C4.9816853,6.53852903 5.6566159,6.53945806 5.65684088,6.09027097" id="Fill-6"></path>
                <path d="M4.06443211,5.27179355 C4.06510704,3.95140645 4.06578197,2.63101935 4.0664569,1.31063226 C4.06668188,0.862141935 3.39175127,0.861445161 3.39152629,1.31063226 C3.39085136,2.63101935 3.39017643,3.95140645 3.3895015,5.27179355 C3.38927653,5.72005161 4.06420713,5.72098065 4.06443211,5.27179355" id="Fill-7"></path>
                <path d="M2.77540464,4.64492903 L2.7767545,1.93610323 C2.77697948,1.48784516 2.10204887,1.48714839 2.1018239,1.93610323 L2.10047404,4.64492903 C2.10024906,5.0931871 2.77517966,5.09411613 2.77540464,4.64492903" id="Fill-8"></path>
                <path d="M25.763901,11.340929 L25.4356598,11.340929 C23.4992839,11.340929 21.9293953,9.72023226 21.9293953,7.7211871 C21.9293953,5.72214194 23.4992839,4.10144516 25.4356598,4.10144516 L25.763901,4.10144516 C27.7002769,4.10144516 29.2701655,5.72214194 29.2701655,7.7211871 C29.2701655,9.72023226 27.7002769,11.340929 25.763901,11.340929" id="Fill-9"></path>
                <polygon id="Fill-10" points="1.02632198 29.2725987 1.02645696 29.2953832 1.02670444 29.3186555 1.02697441 29.3418813 1.02731187 29.3645265 1.02769434 29.3871019 1.02821178 29.4101652 1.02870673 29.4331587 1.02929167 29.4555716 1.0299666 29.4784723 1.03064153 29.500769 1.03142895 29.5230426 1.03228386 29.5457806 1.03318377 29.5684258 1.03415117 29.591071 1.03511857 29.6131123 1.03619846 29.6350839 1.03736834 29.6575665 1.03856072 29.6799561 1.03979809 29.7017884 1.04114795 29.7240852 1.04249781 29.7463123 1.04391517 29.7679819 1.04542251 29.7901394 1.04695236 29.8116929 1.04854969 29.8331768 1.05030451 29.8556826 1.05199184 29.8775845 1.05372416 29.8983716 1.05561397 29.9202039 1.05752627 29.9419665 1.05950606 29.9636594 1.06150836 29.985329 1.06355565 30.0064181 1.06564793 30.027391 1.0678977 30.0488516 1.07014747 30.0703355 1.07248723 30.0917265 1.07484949 30.1130477 1.07721174 30.1338116 1.07964149 30.1544594 1.08222873 30.1756413 1.08483846 30.1967303 1.08751569 30.2178194 1.09021541 30.2388619 1.09291513 30.2592542 1.09574984 30.2801342 1.09862954 30.3009677 1.10150925 30.3212439 1.10452394 30.3420077 1.10756112 30.3627019 1.11059831 30.382769 1.11377049 30.4033239 1.11701015 30.4238787 1.12029481 30.4444103 1.12360197 30.4648258 1.12697663 30.4851716 1.13030629 30.5049135 1.13383842 30.5251897 1.13734806 30.5454658 1.1408577 30.5650452 1.14452482 30.5851355 1.14823694 30.6051561 1.15199406 30.6252 1.15581866 30.6451974 1.15966577 30.6650787 1.16344538 30.6843329 1.16744997 30.7040981 1.17145455 30.7238632 1.17543665 30.7430245 1.17971121 30.7632077 1.18382828 30.7827639 1.18794536 30.8016929 1.19224242 30.8212026 1.19658447 30.8406194 1.20094902 30.8599432 1.20542606 30.87936 1.2098806 30.8986374 1.21426765 30.9172413 1.21890218 30.9363794 1.22364919 30.9560052 1.22821622 30.974609 1.23296323 30.9936077 1.23773274 31.0125135 1.24243476 31.0308387 1.24747424 31.050209 1.25242373 31.0691148 1.25726073 31.0872774 1.2624577 31.1065084 1.26749718 31.1251123 1.27249167 31.143089 1.27771113 31.1617626 1.28293059 31.1802271 1.28821755 31.1986219 1.293572 31.21704 1.29894895 31.2353419 1.30434839 31.2535974 1.30981533 31.2717832 1.31534976 31.2899923 1.32095168 31.3081781 1.32655361 31.3262013 1.33220053 31.3441781 1.33791494 31.3622013 1.34367435 31.3800852 1.34945625 31.3978994 1.35532815 31.41576 1.36124504 31.4335974 1.36718443 31.4512723 1.37314632 31.4688774 1.3791982 31.4865523 1.38527257 31.5040877 1.39139194 31.5215303 1.39757881 31.5390426 1.40378817 31.5564155 1.41004252 31.5737187 1.41663435 31.5917187 1.4229337 31.6089523 1.42907557 31.6254426 1.4355549 31.6426529 1.44228171 31.6603742 1.44876104 31.6773755 1.45517288 31.693889 1.46201218 31.7113548 1.4686265 31.7281703 1.4753983 31.7451019 1.48210261 31.7618477 1.48896441 31.7786632 1.49602868 31.7959665 1.50259801 31.8119226 1.50954979 31.8284594 1.51681655 31.8457161 1.52379083 31.8621832 1.5308326 31.8785574 1.53796437 31.8950477 1.54509614 31.911329 1.5522504 31.9275871 1.55976463 31.9444258 1.56696389 31.960591 1.57427564 31.9766632 1.58169987 31.9929445 1.58910161 32.0089703 1.59672833 32.0254374 1.60417506 32.0413471 1.61141932 32.0566297 1.619361 32.0732129 1.6271452 32.0895174 1.63450195 32.1046839 1.64217366 32.1203381 1.65020533 32.1365497 1.65798953 32.1522735 1.66572873 32.1676258 1.6738504 32.1837213 1.68176959 32.1992594 1.68964378 32.2146116 1.69758546 32.2299174 1.70563963 32.2452929 1.71400877 32.2611561 1.72204045 32.2763226 1.73016211 32.2914194 1.73853125 32.3069806 1.7467654 32.3221239 1.75506705 32.3372439 1.7633012 32.3521548 1.77187282 32.3675071 1.78017447 32.3823252 1.7886336 32.3972129 1.7973852 32.4125884 1.80582183 32.4272671 1.81428096 32.4418761 1.82289758 32.4566013 1.83182916 32.4717677 1.84067075 32.4867484 1.84928736 32.5011716 1.85792647 32.5155484 1.86672307 32.5300181 1.87554216 32.5444645 1.88463123 32.5591897 1.89340533 32.5733806 1.9023819 32.5876645 1.91156096 32.6022503 1.92076251 32.6167432 1.92978409 32.6308877 1.93889565 32.645009 1.94820969 32.6593858 1.95725376 32.6732284 1.96645532 32.6872103 1.97558938 32.70096 1.98519589 32.7152903 1.99468991 32.7294348 2.00391396 32.7430452 2.0132955 32.7567948 2.023037 32.7709161 2.03266601 32.7848748 2.04171008 32.7978348 2.05158656 32.81184 2.06130556 32.8256361 2.07079959 32.8389213 2.08072107 32.8527639 2.09037257 32.8661419 2.09995659 32.8792877 2.1095856 32.8924103 2.11970956 32.9060671 2.12969853 32.9195148 2.139755 32.9328929 2.14958649 32.9459923 2.15950797 32.9590452 2.16963193 32.9723071 2.17948591 32.9850813 2.18983485 32.9984129 2.2000713 33.0115123 2.21012776 33.0243329 2.22025172 33.0371071 2.23012821 33.0495097 2.24067962 33.0625626 2.25120854 33.0756387 2.26166996 33.0884594 2.27210889 33.1012335 2.28194038 33.1131484 2.29280676 33.1261781 2.30333568 33.1388361 2.31363962 33.1510065 2.32441601 33.1637342 2.33507991 33.1762297 2.34540635 33.1882839 2.35600276 33.2004542 2.36675666 33.2128103 2.37755555 33.2250968 2.3886694 33.2377084 2.39919832 33.2495535 2.4100872 33.2617006 2.4207961 33.2736155 2.43179747 33.2856929 2.44273135 33.2977239 2.45359773 33.3094994 2.46477908 33.3216 2.47553297 33.33312 2.48664683 33.3449652 2.49778319 33.3567406 2.50876206 33.3682839 2.52014589 33.3801755 2.53137223 33.3918116 2.54246359 33.4032387 2.55375743 33.4148284 2.56507377 33.4263019 2.57659258 33.4379613 2.58759395 33.4490168 2.59886529 33.4602348 2.61083406 33.47208 2.62226289 33.4833677 2.63342174 33.4942606 2.64460309 33.5051071 2.65636938 33.5164181 2.66813567 33.5277058 2.67974448 33.5387613 2.69137578 33.5497471 2.7028721 33.5605471 2.71459339 33.5714865 2.72629219 33.5823329 2.73844094 33.5935045 2.75018473 33.6042813 2.76165855 33.6146865 2.77369482 33.6255561 2.7855286 33.6361935 2.79709241 33.6464826 2.80921866 33.6571897 2.82136742 33.6678735 2.83333619 33.6783252 2.84532745 33.6887303 2.85722873 33.6989729 2.86928749 33.7093084 2.88136875 33.719551 2.89369748 33.7299561 2.90602621 33.7403148 2.91806247 33.7503484 2.93005374 33.760289 2.94247246 33.7704852 2.95493618 33.7806813 2.96719742 33.7906219 2.97950366 33.8005394 2.99178739 33.8103871 3.00425111 33.8202813 3.01664734 33.8300826 3.02902107 33.8398142 3.04168726 33.8496619 3.05412848 33.8593006 3.0666147 33.8688929 3.0793034 33.8786013 3.09205958 33.8882865 3.1045908 33.8977626 3.11705451 33.9070994 3.12967572 33.9164826 3.14229692 33.9257961 3.15521059 33.935249 3.16787679 33.9444929 3.18081296 33.9538529 3.19374913 33.9631665 3.20650532 33.9722942 3.21926151 33.9813523 3.23208519 33.9903639 3.24511135 33.9994916 3.258205 34.0085729 3.27105118 34.0174684 3.28362739 34.0260852 3.29681103 34.0350271 3.31030964 34.0441781 3.32324581 34.0528877 3.33624948 34.0615277 3.34947812 34.0703071 3.36243678 34.0788542 3.37553044 34.0873781 3.38891656 34.0960645 3.40198772 34.1044955 3.41505887 34.1128335 3.42848999 34.1213574 3.44196611 34.1298581 3.45539723 34.138289 3.46862587 34.146511 3.48183201 34.1546632 3.49562309 34.1631174 3.50887423 34.1712232 3.52219286 34.1792594 3.53551149 34.1872723 3.54885262 34.1951923 3.56275619 34.2034142 3.57614231 34.211311 3.5898659 34.2193006 3.603522 34.2272206 3.61695312 34.2349316 3.63045173 34.2426426 3.64424281 34.2504465 3.65801139 34.2582271 3.671555 34.2657755 3.68536858 34.27344 3.69895718 34.2809187 3.71256829 34.2883277 3.72647186 34.2958761 3.7406679 34.3035174 3.75432399 34.3108335 3.76800259 34.3180568 3.78224362 34.3255587 3.79598971 34.3327587 3.8097133 34.3398658 3.82377435 34.3471123 3.83752044 34.3541265 3.85162649 34.3612568 3.86573254 34.3683639 3.87983859 34.3753781 3.89394464 34.3823923 3.90784821 34.3892206 3.92177428 34.3960258 3.93597032 34.4028542 3.95043633 34.4098219 3.9643624 34.4164645 3.97835596 34.4230839 3.99293446 34.4299123 4.00663555 34.4362994 4.02098907 34.4428723 4.03556758 34.4495613 4.04962863 34.4559484 4.06398215 34.4624284 4.0781107 34.4687226 4.09277919 34.4752258 4.10688524 34.4814503 4.12105879 34.4876052 4.1355248 34.4938529 4.15028328 34.5001703 4.16445682 34.506209 4.17872036 34.5122013 4.19347884 34.5183794 4.20803484 34.5243948 4.22229838 34.5302942 4.23660691 34.5361006 4.25147788 34.5420929 4.26607887 34.5479458 4.2804549 34.5536594 4.2950334 34.5593729 4.30970189 34.5651097 4.32443787 34.5707768 4.33906137 34.5764206 4.35370737 34.5819484 4.36842085 34.5874994 4.38297686 34.5929342 4.39769034 34.598369 4.41238133 34.6037574 4.42720731 34.6091226 4.44171832 34.6143484 4.45658929 34.6196206 4.47168524 34.6249394 4.48644372 34.6301187 4.50099972 34.6351587 4.51593819 34.6402684 4.53074166 34.6453084 4.54536516 34.6501858 4.56066359 34.6552723 4.57551206 34.6601961 4.59038303 34.6650271 4.60536649 34.6698813 4.62005748 34.6745729 4.63528841 34.6794039 4.65031687 34.6841187 4.66509785 34.6886942 4.68003631 34.6932929 4.69499727 34.6978219 4.71007073 34.702351 4.72521167 34.7068568 4.74021763 34.7112465 4.75535857 34.7156594 4.77072449 34.7200723 4.78570795 34.724369 4.80039894 34.7285032 4.81549489 34.7326839 4.83086081 34.736911 4.84609174 34.7410452 4.86118769 34.7451097 4.8765986 34.7491974 4.89185203 34.7532155 4.906813 34.7571174 4.92195394 34.7609961 4.93707239 34.7648284 4.95237081 34.7686374 4.96773673 34.7724465 4.98323764 34.7762323 4.99842358 34.7799019 5.01345203 34.7834787 5.02899793 34.7871252 5.04418387 34.7906555 5.05957229 34.7941858 5.07466824 34.7976 5.08992167 34.800991 5.10582753 34.8044748 5.12094598 34.8077729 5.13622191 34.8110245 5.15181281 34.8143226 5.16695375 34.8174813 5.18247715 34.82064 5.19811305 34.8238219 5.21343397 34.8268645 5.2287549 34.8298606 5.24405332 34.8328335 5.25957673 34.83576 5.27514513 34.8386865 5.29084851 34.8415665 5.30621443 34.8443768 5.32158035 34.8470942 5.33714875 34.8498348 5.35255967 34.8524826 5.36826305 34.8551535 5.38389894 34.8577548 5.39928736 34.8602865 5.41458579 34.8627484 5.43037917 34.8652335 5.44612755 34.8676723 5.46158346 34.8700181 5.47699437 34.8723174 5.49267526 34.8746168 5.50846864 34.8768929 5.52383456 34.8790529 5.53933546 34.8811665 5.55512884 34.8833032 5.57096721 34.8853935 5.58640062 34.887391 5.60181154 34.8893187 5.61764991 34.8912697 5.63351078 34.8931974 5.64898919 34.895009 5.66476007 34.8968206 5.68030597 34.8985626 5.69580687 34.9002348 5.71196021 34.9019535 5.72750612 34.9035794 5.74311951 34.9051355 5.75895788 34.9066916 5.7743688 34.9081548 5.79029716 34.9096181 5.80591055 34.9110116 5.82138896 34.9123355 5.83767729 34.9137058 5.85322319 34.91496 5.86881409 34.9161677 5.88469745 34.9173755 5.90022086 34.9184903 5.91617172 34.9195819 5.93210008 34.9206735 5.94769098 34.9216723 5.96328187 34.9226013 5.97921024 34.9235303 5.9951611 34.9244361 6.010707 34.925249 6.02634289 34.9260155 6.04231625 34.9267587 6.05822211 34.9274787 6.073858 34.928129 6.08978637 34.9287329 6.10539976 34.9293135 6.12108065 34.9298245 6.13734648 34.9303123 6.15298237 34.9307535 6.16861826 34.9311484 6.18456912 34.9314968 6.20018252 34.9317987 6.21617837 34.9320542 6.23215173 34.9322865 6.24781012 34.932449 6.26344601 34.9325884 6.27941937 34.9326581 6.29541522 34.9327045 6.31105112 34.9327045 6.32668701 34.9326581 6.34268287 34.9325652 6.35865622 34.9324258 6.37429212 34.9322632 6.38992801 34.932031 6.40592386 34.9317523 6.42191972 34.9314503 6.43755561 34.9311019 6.45355147 34.9306839 6.46952482 34.9302426 6.48516072 34.9297781 6.50081911 34.9292439 6.516455 34.9286632 6.53242836 34.9280361 6.54840171 34.9273626 6.56433008 34.9266658 6.58001096 34.9259226 6.59564686 34.9251329 6.61164271 34.9242968 6.62763857 34.923391 6.64358943 34.9224852 6.65918032 34.9215329 6.67486121 34.920511 6.69047461 34.9194658 6.70640297 34.918351 6.72239882 34.9171897 6.73798972 34.9160284 6.75398558 34.9147742 6.76986894 34.9134968 6.78552733 34.9121961 6.80116323 34.910849 6.81706909 34.909409 6.83299745 34.907969 6.84861085 34.9064826 6.86420174 34.9049497 6.8801526 34.9033471 6.89608097 34.9017213 6.91169436 34.9000723 6.92757773 34.8983303 6.94346109 34.8965652 6.95907449 34.8948 6.97462039 34.8929652 6.99057125 34.8910606 7.00638712 34.8891097 7.02193303 34.8871587 7.03750143 34.8851613 7.05340729 34.883071 7.06929066 34.8809574 7.08476907 34.8788206 7.10026997 34.8766606 7.11617584 34.8743845 7.13203671 34.8720852 7.14794257 34.8697161 7.16335349 34.8674168 7.17885439 34.8650013 7.19471526 34.8625394 7.21023867 34.8600542 7.22598705 34.8574761 7.24178042 34.8548748 7.25730383 34.8522735 7.2730972 34.8495561 7.28862061 34.8468852 7.30398653 34.8441445 7.32000488 34.8412645 7.33543829 34.8384774 7.35102919 34.8355742 7.36671008 34.8326245 7.38234597 34.8296284 7.39777938 34.8266555 7.4132128 34.8235897 7.42896118 34.8204542 7.44459707 34.8172723 7.46032295 34.8140439 7.47573387 34.8108387 7.4909873 34.8076103 7.50671318 34.8042426 7.5221016 34.8008981 7.53767 34.7974606 7.55332839 34.7939768 7.56871681 34.7904929 7.58424021 34.7869394 7.59958363 34.7833858 7.61476957 34.779809 7.63040547 34.7760697 7.64606386 34.7723071 7.6612048 34.7686142 7.67684069 34.7647587 7.69245409 34.7608568 7.70759503 34.7570477 7.72300594 34.7530761 7.73825938 34.749151 7.75351281 34.7451329 7.7691037 34.7410219 7.78451462 34.7368877 7.79985804 34.7327303 7.81506648 34.7285729 7.83027492 34.7243458 7.84582082 34.7200026 7.86116424 34.7156594 7.8761702 34.7113858 7.89164861 34.7069032 7.90663206 34.7025368 7.92175051 34.698031 7.93754389 34.6933394 7.95248235 34.6888568 7.96742081 34.6842813 7.98280923 34.6795432 7.99826514 34.6747587 8.01313611 34.6700903 8.02802958 34.6653523 8.04348549 34.6604052 8.05871643 34.6554813 8.0735874 34.6506271 8.08868335 34.6456568 8.10402677 34.6405471 8.11883025 34.6356 8.13381371 34.6304903 8.14911213 34.6252645 8.16420808 34.6200387 8.17925903 34.6148129 8.19397252 34.6096335 8.20888849 34.6043381 8.22414192 34.59888 8.2389004 34.5935381 8.25374888 34.5881032 8.26866484 34.5826219 8.28360331 34.577071 8.29876675 34.5714039 8.31341274 34.5658761 8.32828371 34.5601858 8.34340216 34.5543794 8.35800316 34.5487355 8.37282913 34.542929 8.38758761 34.5370994 8.40214362 34.5313161 8.41721707 34.5252542 8.43195305 34.5193084 8.44666654 34.5132929 8.46144752 34.507231 8.47618351 34.5011226 8.49062702 34.4951071 8.50502554 34.4890219 8.52023398 34.4825419 8.53487997 34.4762942 8.54927849 34.4700929 8.56390199 34.4637058 8.57854798 34.4572955 8.59283401 34.4509781 8.60739001 34.4444748 8.62226099 34.437809 8.63650202 34.4313755 8.65099053 34.4247561 8.66554654 34.4180671 8.68001255 34.4113548 8.69447856 34.4046194 8.7086746 34.3979303 8.72338809 34.3909626 8.73753913 34.3842271 8.76635867 34.3703148 8.79506572 34.3562632 8.8088343 34.3494116 8.8234128 34.3421187 8.83767634 34.3349652 8.85196237 34.3277187 8.8662484 34.3204258 8.88021946 34.313249 8.89439301 34.3059097 8.90836407 34.2986168 8.93695863 34.2835432 8.95054723 34.2762968 8.96492325 34.2685626 8.9790518 34.2609445 8.99309036 34.2533032 9.00719641 34.2455923 9.02069502 34.2381368 9.03439611 34.2304955 9.04868214 34.2224826 9.06294568 34.2144465 9.07662427 34.206689 9.09030286 34.1988619 9.10418394 34.1908723 9.11811 34.1827897 9.13201357 34.1746839 9.14584965 34.1665548 9.15943825 34.1585187 9.17322934 34.1502968 9.18677294 34.142191 9.20024906 34.1340155 9.21426512 34.1254916 9.22769624 34.1172697 9.24112736 34.1089781 9.25503093 34.1003381 9.26873202 34.091791 9.28214064 34.08336 9.29543677 34.0749523 9.32263648 34.0575561 9.33559514 34.0491484 9.3496562 34.0399974 9.36290733 34.0313574 9.37611348 34.0226245 9.38956709 34.0137058 9.40297572 34.0047406 9.41638434 33.9957523 9.42950049 33.98688 9.44261664 33.9779381 9.45593527 33.9688103 9.4692314 33.9596361 9.48225756 33.9505781 9.49528372 33.9414735 9.50848987 33.93216 9.52171851 33.9228 9.53487965 33.9134168 9.54781582 33.9041497 9.560707 33.8948129 9.57404813 33.8851277 9.58655684 33.8759768 9.59935802 33.8665239 9.61269915 33.8566297 9.62572531 33.8469213 9.63868398 33.8371897 9.6511252 33.8278297 9.6637689 33.8181677 9.67702004 33.8080413 9.68957375 33.7983794 9.70219495 33.7886013 9.71501863 33.778591 9.72757234 33.76872 9.74035103 33.7585935 9.75310722 33.7484903 9.76561593 33.73848 9.77796716 33.7285161 9.79040838 33.7184361 9.80302958 33.7081239 9.81562829 33.6977652 9.82800202 33.6875458 9.84035325 33.67728 9.85288446 33.6667819 9.86505571 33.6565394 9.87749693 33.6459716 9.88993815 33.6353806 9.90213189 33.6248826 9.91434814 33.6143613 9.92669937 33.6036077 9.93884812 33.5929935 9.95081689 33.582449 9.96307813 33.5715794 9.97513689 33.5608258 9.98735313 33.5498632 9.99956938 33.5388542 10.0112007 33.5282865 10.0231245 33.5173471 10.0354307 33.5060361 10.046972 33.4953523 10.0588058 33.4842968 10.0708195 33.4730323 10.0827883 33.4616981 10.0947796 33.4503406 10.1061859 33.4394477 10.1178622 33.4281832 10.129741 33.4166632 10.1415748 33.4051432 10.1532286 33.3937394 10.1646799 33.3824284 10.1760862 33.3711174 10.187605 33.3595742 10.1996188 33.3474735 10.2109801 33.3360232 10.222049 33.324689 10.2338153 33.3126348 10.2450866 33.3010219 10.2562455 33.289409 10.2679218 33.2772155 10.2790806 33.2654865 10.2901495 33.2537342 10.3017358 33.2414013 10.3128047 33.2295561 10.323761 33.2176877 10.3352574 33.2051923 10.3460787 33.1933935 10.3569676 33.1813858 10.3685089 33.1685884 10.3793978 33.1564877 10.3900167 33.1445497 10.4009956 33.1321471 10.4122219 33.1193729 10.4231558 33.1069006 10.4337072 33.0947535 10.4443486 33.0823974 10.4552825 33.0696232 10.4662164 33.0568026 10.4766328 33.0444929 10.4873192 33.0317652 10.4981631 33.0187819 10.5086245 33.0061703 10.5192209 32.9933032 10.5296374 32.9805987 10.5399638 32.967871 10.5508077 32.9544465 10.5611341 32.9416258 10.5713706 32.9287587 10.581787 32.9156129 10.5922934 32.9022348 10.6024849 32.8892516 10.6124289 32.8764077 10.6227328 32.8630529 10.6330817 32.8495123 10.6431382 32.8363432 10.6529697 32.8232903 10.6632286 32.8096103 10.6734651 32.7958839 10.6835665 32.7822735 10.6931056 32.7693135 10.7031845 32.755471 10.713196 32.7417213 10.722915 32.7282039 10.7325215 32.7148258 10.7524095 32.6866761 10.761926 32.6731587 10.771465 32.659409 10.7812065 32.6453574 10.7907005 32.6315148 10.800442 32.6172077 10.8097786 32.6034581 10.8191376 32.5894994 10.8287891 32.5750529 10.8379907 32.5611639 10.8475522 32.5466245 10.8568212 32.5325032 10.8658878 32.5184981 10.8752468 32.5039587 10.8843809 32.4896748 10.8937399 32.4749032 10.902829 32.4605497 10.9117156 32.4463355 10.9208946 32.4315406 10.9299387 32.4169084 10.9388253 32.4023923 10.9478694 32.3875045 10.956621 32.3730348 10.9652826 32.3585187 10.9743267 32.3433058 10.9831232 32.3284181 10.9919648 32.3132981 11.000559 32.2985961 11.0091081 32.2837084 11.0179722 32.2682865 11.0262063 32.2538168 11.0348229 32.2384645 11.043507 32.2230426 11.0516062 32.2084103 11.0602228 32.1927561 11.0685695 32.1775665 11.0767361 32.1624697 11.0851728 32.1468155 11.0934519 32.1313239 11.1015286 32.116111 11.1098302 32.1002942 11.1179969 32.0846865 11.1259386 32.0693342 11.1339027 32.053889 11.1418219 32.0382813 11.1499886 32.0221161 11.1578628 32.0064155 11.1656245 31.990831 11.1736112 31.9746426 11.1813954 31.9588026 11.1890671 31.9429161 11.1967613 31.9269832 11.2043655 31.9110271 11.2121497 31.8946297 11.219394 31.8792077 11.2268407 31.863089 11.2345574 31.8464129 11.2421391 31.8298065 11.2495634 31.8135484 11.2566276 31.7978013 11.2638494 31.7815897 11.2713186 31.7646581 11.2785404 31.7482374 11.2856271 31.7318865 11.2929839 31.7148155 11.2998457 31.6987897 11.306775 31.6822994 11.3139967 31.665089 11.3209035 31.6485058 11.3277878 31.6317368 11.3346496 31.6149445 11.3413989 31.5981987 11.3481707 31.5813135 11.3551 31.5638245 11.3617593 31.5469626 11.3681712 31.530449 11.3747405 31.5133781 11.3814223 31.4957961 11.3879466 31.4786323 11.394336 31.4615148 11.4007703 31.4442348 11.4069122 31.427489 11.413369 31.4096748 11.4198483 31.3916981 11.4259002 31.3747897 11.4320196 31.3573935 11.4381615 31.3398348 11.4442133 31.3222529 11.4502427 31.3046942 11.4562046 31.2869961 11.4623465 31.2687174 11.4680384 31.2515768 11.4738653 31.2337394 11.4798722 31.2152981 11.4854291 31.1980413 11.491076 31.1801342 11.4967454 31.162111 11.5023474 31.1439484 11.5080843 31.1253677 11.5134162 31.1078323 11.5188607 31.0896232 11.5243051 31.0713677 11.5296146 31.0531587 11.534969 31.0347639 11.540211 31.0163923 11.5454529 30.9979974 11.5504474 30.9800671 11.5557119 30.9609523 11.5607964 30.9424413 11.5656334 30.9244181 11.5707628 30.9050942 11.5757348 30.886351 11.5804368 30.8682116 11.5852288 30.8494452 11.5899984 30.8305626 11.5947229 30.8116335 11.5993799 30.7927277 11.6040144 30.7736826 11.6086039 30.7546142 11.612991 30.7361265 11.617423 30.7169419 11.6219901 30.6971535 11.6262421 30.6784335 11.6305167 30.6592026 11.6348137 30.6398787 11.6388858 30.6209729 11.6430254 30.6015794 11.6472325 30.5815587 11.6513495 30.5619329 11.6551067 30.5435381 11.6630258 30.5035897 11.6668729 30.4838942 11.6705626 30.4647097 11.6742747 30.4448516 11.6779868 30.4249471 11.6814964 30.4055535 11.6851636 30.3850452 11.6887407 30.3650013 11.6920029 30.346049 11.6953775 30.3259355 11.6988422 30.3051716 11.7020593 30.2854994 11.705299 30.2652697 11.7085162 30.2449239 11.7115534 30.2251355 11.7146355 30.2046735 11.7176727 30.1842116 11.7206424 30.1637032 11.7235896 30.1430787 11.7263793 30.1230581 11.7319363 30.0816697 11.7345685 30.06144 11.7372007 30.0406297 11.739788 30.0197961 11.7422627 29.9994039 11.7446924 29.9784774 11.7471447 29.9574348 11.749417 29.9369265 11.7517117 29.9158142 11.7539615 29.8946323 11.7560988 29.8739613 11.7581911 29.8527097 11.7602833 29.8314116 11.7622406 29.8106013 11.7641754 29.7891871 11.7660877 29.7677497 11.7678876 29.7467535 11.7696424 29.7252232 11.7713972 29.7036 11.7729945 29.6824877 11.7745919 29.6607716 11.7760992 29.6395665 11.7790239 29.5959019 11.7803288 29.5745342 11.7816336 29.5525858 11.7828485 29.5311252 11.7839734 29.5096181 11.7862232 29.4648155 11.7871681 29.4437032 11.7889904 29.3991097 11.7897553 29.3772774 11.7905202 29.354911 11.7911952 29.3329858 11.79241 29.2879045 11.792905 29.26584 11.7933549 29.243729 11.7940524 29.1982761 11.7942998 29.1759561 11.7952447 29.07216 11.7963021 28.9371716 11.7974945 28.7721987 11.7988219 28.5784258 11.8002392 28.3568748 11.8017691 28.108591 11.8033439 27.8345497 11.8050987 27.5357961 11.8088334 26.8684026 11.8129054 26.1146787 11.81727 25.2828 11.8219045 24.3809419 11.826809 23.4174194 11.831871 22.4003613 11.8370904 21.3380129 11.8424224 20.2387355 11.8478443 19.1104258 11.8533338 17.9614452 11.8588682 16.8001548 11.8643576 15.6344516 11.8751115 13.3234839 11.885393 11.094271 11.894842 9.01207742 11.9032111 7.14309677 11.9102304 5.55305806 11.9131326 4.88276129 11.9156074 4.30722581 11.9176097 3.83388387 11.919027 3.47156129 11.9199269 3.22815484 11.9201969 3.15406452 11.9202419 3.11295484 12.8201494 3.11411613 12.8201044 3.1563871 12.8198344 3.23163871 12.8189345 3.47527742 12.8175171 3.83783226 12.8155148 4.31117419 12.8130176 4.88694194 12.8101379 5.55723871 12.8031186 7.14750968 12.794727 9.01649032 12.7853005 11.0984516 12.775019 13.3278968 12.7642426 15.6390968 12.7587757 16.8045677 12.7532413 17.9660903 12.7477518 19.115071 12.7423074 20.2433806 12.7369979 21.3426581 12.7317785 22.4050065 12.7267165 23.4222968 12.721812 24.3858658 12.717155 25.2877935 12.7127904 26.1197884 12.7087183 26.8736748 12.7049837 27.5412774 12.7032514 27.8401239 12.7016541 28.1143045 12.7001242 28.3629135 12.6987069 28.5847665 12.6973795 28.7789806 12.6961646 28.9444181 12.6951072 29.0802426 12.6941623 29.1855948 12.6938699 29.2110039 12.6934874 29.2359019 12.6931049 29.2607535 12.6925875 29.2861161 12.692025 29.311409 12.6913726 29.3361445 12.6907202 29.3608335 12.6899328 29.3860568 12.6891003 29.4106529 12.6882004 29.43576 12.687188 29.4602865 12.6861981 29.4847897 12.6850508 29.5103381 12.6838359 29.5347252 12.6826435 29.5585548 12.6813386 29.5834297 12.6799213 29.6082581 12.6784814 29.6325058 12.6769516 29.6572645 12.6753543 29.6813961 12.6737569 29.7055277 12.6720021 29.7301471 12.6702248 29.754209 12.6683575 29.7787355 12.6664002 29.8027045 12.6644654 29.8266271 12.6623731 29.8510606 12.6602583 29.8748903 12.6580985 29.8986735 12.6558263 29.9229677 12.6534865 29.9467045 12.6511467 29.9703484 12.6486495 29.9945265 12.6461523 30.0181006 12.6435875 30.0416748 12.6409103 30.0657135 12.6381881 30.0891948 12.6354659 30.1126297 12.6325637 30.1365523 12.6296615 30.1599174 12.6267143 30.1831897 12.6236321 30.2069961 12.6205049 30.2301987 12.6173777 30.2534245 12.6140706 30.2771148 12.6107859 30.3001316 12.6074337 30.3232413 12.6040366 30.3462116 12.6005719 30.3691819 12.5969723 30.3926865 12.5933502 30.4155639 12.5897056 30.4384413 12.585881 30.46176 12.5821688 30.4839406 12.5783667 30.5067019 12.5742497 30.5304619 12.5702226 30.5530839 12.5662855 30.5751484 12.5621009 30.5982348 12.5579163 30.6207174 12.5537093 30.6431768 12.5492772 30.6662168 12.5449127 30.6886065 12.5406156 30.7102994 12.5361611 30.7326658 12.5313916 30.7560542 12.526757 30.7781884 12.5222125 30.7998581 12.517488 30.8220155 12.512606 30.8445677 12.5077015 30.8666787 12.5028195 30.8886968 12.49769 30.9112026 12.492763 30.9325239 12.4877011 30.9543794 12.4823916 30.9768155 12.4771496 30.9985781 12.4718852 31.0203174 12.4665082 31.0420568 12.4611088 31.06368 12.4556643 31.0853032 12.4501299 31.1069265 12.444393 31.1290606 12.4387011 31.1504981 12.4331892 31.1712852 12.4272723 31.1933265 12.4213779 31.2147174 12.415686 31.2354581 12.4096116 31.2572671 12.4035372 31.2785652 12.3975078 31.2997006 12.391366 31.3208361 12.3851791 31.3419716 12.3789247 31.3630142 12.3726479 31.3840103 12.3660786 31.4056103 12.3597792 31.4260026 12.3533674 31.4467665 12.3468205 31.4676 12.3402287 31.4884568 12.3333444 31.5098477 12.3267976 31.5299613 12.3200708 31.5505858 12.3130065 31.5718374 12.3062797 31.5918116 12.2993729 31.6123432 12.2923311 31.6328981 12.2853119 31.6532903 12.2781576 31.6736826 12.2709808 31.6941213 12.2635341 31.7149316 12.2564248 31.7346271 12.2492706 31.7543923 12.2416888 31.7750865 12.2341971 31.7952 12.2266829 31.81536 12.2190787 31.8353806 12.2116319 31.8549135 12.2039602 31.8748181 12.1960185 31.89528 12.1881444 31.9152077 12.1805176 31.9344619 12.1726209 31.9542039 12.1646118 31.9740387 12.1566026 31.9936645 12.1485259 32.0133135 12.1403368 32.0329858 12.1323726 32.0519845 12.1241159 32.0715639 12.1155893 32.0915381 12.1074452 32.1103974 12.099031 32.1298606 12.0905269 32.1491381 12.0822927 32.1678813 12.0736761 32.1872052 12.0648345 32.2068774 12.0561054 32.2260155 12.0475788 32.244689 12.0390297 32.2631768 12.0302556 32.2821755 12.0210315 32.3017548 12.0122799 32.3202426 12.0033034 32.3390787 11.9942368 32.3578684 11.9851477 32.3766116 11.9759687 32.3953316 11.9669471 32.4136103 11.9576331 32.4323535 11.948319 32.450911 11.9392074 32.468911 11.9298259 32.4873987 11.9202644 32.5059794 11.9107029 32.5244671 11.9011639 32.5426761 11.8917373 32.5606065 11.8819958 32.5789781 11.8723443 32.5970245 11.8627603 32.6148387 11.8528838 32.633071 11.8429848 32.6511174 11.8333558 32.6686297 11.8231194 32.6870942 11.8132204 32.7046761 11.8033889 32.7221884 11.7929725 32.7404903 11.783051 32.7577703 11.7728371 32.7754916 11.7624431 32.7933523 11.7523192 32.810609 11.7420152 32.8280516 11.7318688 32.8451226 11.7213398 32.8627742 11.7106984 32.8803794 11.700327 32.8974503 11.6897081 32.9147768 11.6791342 32.9319174 11.6685828 32.9488723 11.6577614 32.9662219 11.646895 32.9833858 11.6363436 33.0000387 11.6254322 33.0171097 11.6146558 33.0338323 11.6035645 33.0509497 11.5924731 33.0678581 11.5816967 33.0842787 11.5704254 33.1012568 11.5595365 33.1175845 11.5483101 33.1343071 11.5368813 33.1511458 11.5258574 33.1673342 11.5144736 33.1839174 11.5032248 33.2001755 11.4917735 33.2166658 11.4800972 33.2332723 11.4691408 33.2487639 11.457577 33.2651381 11.4457657 33.2815819 11.4340894 33.29784 11.4224806 33.3137729 11.4110518 33.3294735 11.398858 33.3460103 11.3871367 33.3618039 11.3755279 33.3773652 11.3638741 33.3929032 11.3517703 33.4089987 11.3396666 33.4248387 11.3278778 33.4402374 11.3159315 33.4557523 11.3036253 33.4716387 11.2913641 33.4872929 11.2793953 33.5024826 11.2672465 33.5178116 11.2549178 33.5333265 11.2424541 33.5487948 11.2305303 33.5635665 11.2180666 33.5789419 11.2054904 33.594271 11.1931167 33.6093213 11.180473 33.6245342 11.1681217 33.6393058 11.155613 33.6542168 11.1427218 33.6694529 11.1302356 33.6840852 11.1177494 33.698671 11.1048807 33.7136052 11.0918096 33.7286787 11.0790084 33.7432645 11.0665222 33.7574787 11.0536535 33.7720413 11.0404474 33.7868594 11.0272862 33.8014916 11.0148 33.8153342 11.0016388 33.8298735 10.9881852 33.844529 10.975429 33.8583948 10.9621554 33.8727484 10.9487468 33.8871019 10.9358556 33.9008284 10.9224695 33.9150426 10.9089484 33.9292335 10.8959447 33.9428439 10.8824236 33.9569187 10.86879 33.9709471 10.8556739 33.9844181 10.8418828 33.9985161 10.8281367 34.0123819 10.8150655 34.0255277 10.8014769 34.0391381 10.7876633 34.0528645 10.7738048 34.0665445 10.7600362 34.0800155 10.7464476 34.0932542 10.732814 34.1064697 10.7189779 34.1198013 10.7047594 34.1333884 10.6910133 34.1464181 10.6772447 34.1594245 10.6634311 34.1723845 10.6494376 34.1854839 10.6350165 34.1988155 10.621293 34.2114503 10.6071644 34.2244103 10.5926534 34.2375794 10.5785923 34.2502606 10.5645538 34.2628723 10.5502453 34.2756232 10.5361392 34.2881187 10.5216282 34.3009161 10.5072297 34.3134813 10.4929886 34.3258606 10.4785226 34.3383561 10.4640341 34.3508052 10.4497031 34.3630219 10.4353496 34.3751923 10.4206136 34.3875948 10.4061701 34.3996955 10.3915016 34.4119123 10.3767881 34.4240594 10.3622771 34.4359742 10.3476986 34.4478658 10.3329176 34.4598735 10.3179566 34.4719277 10.3030632 34.4838426 10.2883947 34.4955019 10.2736362 34.5071613 10.2586752 34.5189135 10.2438718 34.5304568 10.2288658 34.5421161 10.2136799 34.5537987 10.1991014 34.5649471 10.1840054 34.5764671 10.168482 34.5881729 10.153521 34.599391 10.1384926 34.6105858 10.1237791 34.6215019 10.1085257 34.6327897 10.0928673 34.6442168 10.0779513 34.65504 10.0625854 34.6661652 10.047152 34.6772206 10.0319435 34.6880671 10.0166901 34.6988671 10.0014367 34.7096439 9.98586828 34.7205135 9.97032238 34.7313135 9.95493396 34.7419045 9.93956804 34.7524723 9.92388716 34.7631329 9.90822877 34.7737471 9.89272786 34.784129 9.87724945 34.7944877 9.86170355 34.8048 9.84591017 34.8152284 9.8300493 34.8255871 9.81502085 34.8353652 9.79884501 34.8458632 9.78289415 34.8560594 9.76752823 34.8658606 9.75150988 34.8760103 9.73549153 34.8860903 9.71976564 34.8958916 9.70424224 34.9055535 9.68815639 34.915471 9.67207055 34.9253187 9.65643466 34.9348413 9.64028132 34.9446194 9.62408298 34.9543277 9.60813212 34.9638271 9.59188879 34.9734426 9.57587044 34.982849 9.55982959 34.992209 9.54378874 35.0014994 9.52774789 35.0107432 9.51136957 35.0201265 9.49499125 35.0294168 9.47908539 35.0383587 9.46320202 35.0472774 9.44675621 35.0564516 9.42997294 35.0657187 9.41370711 35.0746142 9.39748628 35.08344 9.38113046 35.0922658 9.36513461 35.1008594 9.34823884 35.1098942 9.33186053 35.1185342 9.31579718 35.1269884 9.2990589 35.1357213 9.28265809 35.1441987 9.2659423 35.1528155 9.249429 35.1612232 9.2329157 35.1695845 9.2164024 35.1778761 9.20018157 35.1860052 9.18306083 35.1945058 9.16643504 35.2026581 9.14987674 35.2107639 9.13318345 35.2188232 9.11655766 35.2268594 9.09959441 35.2349187 9.08319359 35.2426994 9.06618534 35.2507123 9.04942457 35.2585161 9.03268629 35.2662735 9.01590301 35.2739613 8.99909724 35.281649 8.9820215 35.2893832 8.9654632 35.2967923 8.94858993 35.3043406 8.9314467 35.3119123 8.91455093 35.3193213 8.89765517 35.3266839 8.88039944 35.3341161 8.86341369 35.3413858 8.84699038 35.3483535 8.82975715 35.3556465 8.81243393 35.3628697 8.79542568 35.3699303 8.77837243 35.3769213 8.7612517 35.3839123 8.74413096 35.3908335 8.72737018 35.3975458 8.70995697 35.4044903 8.69276874 35.4112723 8.675648 35.4179613 8.65816729 35.4247432 8.64122654 35.4312232 8.6240608 35.4377961 8.6065351 35.4444155 8.58952685 35.4507794 8.57229362 35.4571897 8.55492541 35.4635768 8.53762469 35.4698942 8.52012149 35.4762116 8.50300075 35.4823432 8.48563253 35.4885213 8.46799435 35.4947226 8.45064863 35.5007613 8.43328042 35.5067535 8.41609218 35.5126297 8.39858898 35.5185755 8.3809058 35.5245213 8.36367257 35.5302581 8.34628186 35.5359948 8.32846369 35.5418013 8.31111798 35.5473987 8.29399724 35.55288 8.27617907 35.5585471 8.2583609 35.5641213 8.24101518 35.5695097 8.22371446 35.5748516 8.2058513 35.5803097 8.18798814 35.5856748 8.17088989 35.5907613 8.15320671 35.5960103 8.13529855 35.6012361 8.11786285 35.6062761 8.09995469 35.611409 8.082294 35.6163794 8.0648358 35.62128 8.04704013 35.6262039 8.02922196 35.6310813 8.01158377 35.6358426 7.99387809 35.6406039 7.9763524 35.645249 7.95848923 35.6499406 7.94062607 35.6545394 7.92292039 35.6590916 7.90483225 35.6636439 7.88723906 35.6680335 7.86964587 35.6723768 7.85158022 35.6767897 7.83391954 35.68104 7.81632635 35.6852439 7.79819321 35.6895174 7.78019506 35.6936748 7.76239939 35.6977626 7.74435625 35.7018503 7.72669557 35.7057523 7.7088549 35.7097239 7.69081175 35.7136258 7.67308358 35.7174348 7.65490545 35.7212903 7.63679481 35.7250529 7.61908913 35.7286761 7.60118097 35.7322994 7.5834078 35.7358529 7.56529716 35.7394529 7.54718652 35.7429368 7.52927836 35.7463742 7.51132521 35.7497419 7.49328206 35.7531097 7.47517143 35.7563845 7.45755574 35.7595665 7.43928762 35.7628181 7.42104199 35.7659535 7.40322382 35.7690194 7.3849782 35.7720619 7.36716003 35.7750116 7.34916188 35.7779381 7.33091626 35.7808645 7.3130306 35.7836516 7.29480747 35.7864852 7.27647186 35.7892258 7.2585187 35.7918968 7.24061054 35.7944981 7.22267989 35.7970529 7.20443426 35.7996077 7.18605365 35.8021394 7.1681005 35.8045316 7.15014734 35.8069006 7.13185672 35.8092465 7.11354361 35.8115458 7.09552296 35.8137523 7.07750231 35.8159123 7.05921169 35.818049 7.04085358 35.8201394 7.02290043 35.8221368 7.00481229 35.824111 6.98645417 35.8260619 6.96845602 35.8278968 6.95043538 35.8297084 6.93207727 35.83152 6.91371915 35.8332387 6.89569851 35.8348877 6.87763286 35.8365135 6.85922976 35.8381161 6.84091664 35.8396258 6.822851 35.841089 6.80478535 35.8425058 6.78640474 35.8438761 6.7683391 35.8451768 6.75031845 35.8464542 6.73187035 35.8476852 6.71348974 35.8488697 6.69513163 35.8499845 6.67702099 35.8510297 6.65893285 35.8520284 6.64086721 35.8529806 6.6224416 35.8539329 6.60406099 35.8547923 6.58604034 35.8555819 6.56792971 35.8563484 6.54986406 35.8570684 6.53143846 35.8577419 6.51301285 35.858369 6.49458725 35.8589265 6.4765216 35.8594142 6.45843346 35.8598787 6.44003036 35.8602968 6.42194222 35.8606219 6.40387657 35.8609471 6.38545097 35.8612258 6.36702536 35.8614116 6.34893722 35.8615742 6.33087158 35.8616903 6.31244597 35.8617368 6.29402037 35.8617368 6.27593223 35.8616903 6.25786659 35.8615974 6.23944098 35.8614581 6.22101537 35.861249 6.20294973 35.8609935 6.18486159 35.8606916 6.16643599 35.8603432 6.14839284 35.8599252 6.12998973 35.8594839 6.11154163 35.8589729 6.09388095 35.8584155 6.07547784 35.8578348 6.05702973 35.8571613 6.03900909 35.8564645 6.02058348 35.8556981 6.00254034 35.8548852 5.98454219 35.854049 5.96611658 35.8531432 5.94771347 35.8521677 5.92969283 35.8511458 5.91167218 35.8501239 5.89329157 35.849009 5.87493346 35.8478245 5.85691281 35.8466168 5.83889216 35.8453626 5.82046656 35.8440387 5.8025134 35.8426684 5.78413279 35.8412748 5.76581968 35.8397652 5.74815899 35.8382787 5.72977838 35.8367226 5.71153276 35.8350735 5.69351211 35.8334245 5.67508651 35.8316826 5.65717835 35.8299174 5.63893272 35.8281058 5.62061961 35.8262013 5.60293642 35.82432 5.5846908 35.8223458 5.56637768 35.8202787 5.54837953 35.8182116 5.53013391 35.8160748 5.51222575 35.8139148 5.49431759 35.8117084 5.47598198 35.809409 5.45780385 35.80704 5.43989569 35.804671 5.42203252 35.8022787 5.4037869 35.7997703 5.38551878 35.7972155 5.36765561 35.7946374 5.34972496 35.7920129 5.33159182 35.7893187 5.31339119 35.7865548 5.29559552 35.7837677 5.27775486 35.7809806 5.25950923 35.7780542 5.2413761 35.7750813 5.22349044 35.7720852 5.20576226 35.7690658 5.18762912 35.7659535 5.16976596 35.7628181 5.15170032 35.7596129 5.13363468 35.7563148 5.1159065 35.75304 5.09804333 35.7497187 5.08024766 35.7463277 5.06222702 35.7428671 5.04420637 35.7393368 5.02620822 35.7357368 5.00852504 35.73216 4.99072937 35.7285368 4.97264123 35.724751 4.95502554 35.7210348 4.93707239 35.7172026 4.91898425 35.7132774 4.90175102 35.7094684 4.88379786 35.7054968 4.86577722 35.701409 4.84807154 35.6973677 4.83023087 35.6932103 4.81268267 35.6890994 4.79468453 35.6848258 4.77686636 35.6805058 4.75936316 35.6762323 4.74170247 35.6718658 4.72410928 35.6674761 4.70633611 35.6629703 4.68856294 35.6584181 4.67063228 35.6537497 4.65306159 35.6491277 4.63569337 35.6445058 4.61798769 35.6397445 4.600417 35.63496 4.58309378 35.6301987 4.5653881 35.6252981 4.54738995 35.6202348 4.52979676 35.6151948 4.51247354 35.6102013 4.49501534 35.6051381 4.47744464 35.5999587 4.45998644 35.5947794 4.44259573 35.5895535 4.42504753 35.5842348 4.40752183 35.5788697 4.38981615 35.5733652 4.37247044 35.5679303 4.3553272 35.5624955 4.33764402 35.5568516 4.32036579 35.5512542 4.30295258 35.5455871 4.28553937 35.5398271 4.26857612 35.5341832 4.25102792 35.5283071 4.23365971 35.5224077 4.21642648 35.5165084 4.19892328 35.5104465 4.18164506 35.5044077 4.1646818 35.4984155 4.14749357 35.4923071 4.13003536 35.4860361 4.11291462 35.4798348 4.09574889 35.4735406 4.07851566 35.4671768 4.06121494 35.4607432 4.04420669 35.4543097 4.02708595 35.4478297 4.00998771 35.4412568 3.99295696 35.4346839 3.9759937 35.4280645 3.95894045 35.4213755 3.94168473 35.4145006 3.92476647 35.4077419 3.90807318 35.4010065 3.89086245 35.3940155 3.87369672 35.3869316 3.85684595 35.3799639 3.84026516 35.3730194 3.82309942 35.3658194 3.80606867 35.3585497 3.78951037 35.3514658 3.7727496 35.3442194 3.75569635 35.3368103 3.7387106 35.3293316 3.72226479 35.3220387 3.70527903 35.3144671 3.68863075 35.3069419 3.67168999 35.2992774 3.65537917 35.2917755 3.63873088 35.2841574 3.62161014 35.2761677 3.60529931 35.2685032 3.58849354 35.2605832 3.57173277 35.2525935 3.55551193 35.2447897 3.53902113 35.2368465 3.52226035 35.228671 3.50558957 35.220449 3.48921125 35.2123432 3.47283293 35.2041677 3.45647712 35.1959226 3.4400988 35.1876542 3.4235855 35.1792232 3.40727467 35.1708155 3.39073887 35.1622684 3.37420307 35.1536052 3.35827471 35.1452206 3.34180641 35.136511 3.32538309 35.1277084 3.30954472 35.1191845 3.29339138 35.1104284 3.27703557 35.1015097 3.26067975 35.0925213 3.24466139 35.0836258 3.22835057 35.0745213 3.21239971 35.0655329 3.19644885 35.0564981 3.18020552 35.047231 3.16398469 35.0379174 3.14814632 35.0286968 3.13230795 35.0194761 3.1161996 35.01 3.1006537 35.0008026 3.08459035 34.9912568 3.068572 34.9816413 3.05257614 34.9719794 3.03662528 34.9622245 3.02119187 34.9527716 3.0053085 34.9429703 2.98942514 34.9330761 2.97385674 34.9232981 2.95833333 34.91352 2.94276493 34.903649 2.92692656 34.8935226 2.91122318 34.8833961 2.89581226 34.873409 2.88010888 34.8631665 2.86438299 34.8528077 2.84903957 34.8426348 2.83344867 34.8322529 2.81792527 34.8218013 2.80294181 34.8116516 2.78766588 34.8012929 2.7718725 34.7904697 2.75646159 34.779809 2.74127565 34.7692645 2.7261572 34.7586735 2.71081378 34.7478735 2.69551536 34.7370039 2.68021693 34.7260877 2.66521097 34.7152877 2.65020501 34.7044413 2.63504157 34.6933626 2.62010311 34.6824232 2.60498466 34.6712516 2.58986622 34.6600103 2.57470278 34.6486761 2.55971932 34.6373419 2.54493834 34.6261239 2.53022485 34.6148826 2.51528639 34.6033858 2.50041542 34.5918658 2.48574692 34.5804387 2.47094345 34.5688258 2.45611747 34.55712 2.44147148 34.5454606 2.42678049 34.5336852 2.412067 34.52184 2.3974435 34.5099484 2.38302249 34.4981497 2.36864646 34.4863742 2.35386548 34.4741342 2.33921949 34.4619174 2.32497845 34.4499561 2.31071492 34.4379252 2.2963164 34.4256852 2.28191788 34.4133755 2.26745187 34.4009265 2.25316584 34.3885239 2.2389023 34.3760516 2.22488624 34.3637187 2.21087019 34.3513394 2.19635918 34.338449 2.18227563 34.325791 2.16837205 34.313249 2.15399603 34.3001729 2.14002497 34.2873523 2.12641387 34.2748335 2.1125103 34.2619432 2.09858423 34.2489832 2.08459067 34.2358374 2.07077709 34.2227613 2.05698601 34.2096619 2.0434424 34.1966555 2.02989879 34.1836258 2.01588273 34.1700387 2.00191167 34.1563819 1.98836806 34.1430039 1.9753419 34.1300903 1.96161831 34.11648 1.94784973 34.1026142 1.93457609 34.0892129 1.92121247 34.0756258 1.90782634 34.0619226 1.89435023 34.0480335 1.88109909 34.0342606 1.86802794 34.0206271 1.85466431 34.0065755 1.84152566 33.9926632 1.82838701 33.9787045 1.81497839 33.9643045 1.80213221 33.9504155 1.78894857 33.9361084 1.77605739 33.9219406 1.76309872 33.9077265 1.75009506 33.8932335 1.73724888 33.8789497 1.72415523 33.8641781 1.7117365 33.8501032 1.69904781 33.8356568 1.68638161 33.8211406 1.67355793 33.806369 1.66068925 33.7913652 1.64815804 33.7766865 1.63582931 33.7621471 1.62302813 33.7469806 1.61069939 33.7321626 1.59857314 33.7176465 1.58561447 33.7019458 1.57337573 33.6869652 1.56115949 33.6719613 1.54912322 33.6570503 1.53710946 33.6421394 1.52453325 33.6263923 1.51229451 33.6109239 1.50010076 33.5954323 1.48817699 33.5801265 1.4763882 33.5649368 1.46419446 33.54912 1.45238317 33.5336516 1.4403919 33.5179045 1.42849063 33.5020877 1.41681433 33.4865032 1.40518302 33.470849 1.39368671 33.455311 1.38180793 33.4391458 1.36997414 33.422911 1.35832034 33.406769 1.3470715 33.3910452 1.3353502 33.374671 1.32407886 33.3586916 1.31287501 33.3428052 1.30104123 33.3258271 1.28990488 33.3096852 1.27885851 33.2936594 1.26758717 33.2771458 1.25624834 33.2604232 1.24526947 33.2440723 1.23440308 33.2278839 1.22319923 33.2109987 1.21215287 33.1942065 1.20106151 33.1772284 1.19033011 33.1606452 1.17939624 33.1437368 1.16859735 33.1267355 1.15797844 33.1100594 1.14742703 33.0932903 1.13667313 33.0761729 1.12594173 33.0588232 1.11552531 33.0419381 1.10495139 33.0246348 1.09444497 33.0073316 1.08389356 32.9897961 1.07340964 32.9722142 1.06328568 32.9550735 1.05322921 32.9380258 1.04297027 32.9204439 1.03266632 32.9026761 1.02242988 32.8848619 1.01262089 32.8676284 1.00251942 32.8498606 0.992462958 32.8318839 0.982676464 32.8143716 0.972687491 32.7963019 0.962833504 32.7783252 0.953024513 32.7603019 0.943485494 32.7426039 0.933676502 32.7243484 0.923979999 32.7060232 0.914643459 32.6883019 0.905081942 32.6700465 0.895520425 32.6516052 0.886003904 32.6330942 0.876622368 32.6146761 0.867555801 32.5967226 0.858106772 32.5779561 0.848905218 32.5593755 0.839951139 32.5413058 0.830749585 32.5225161 0.821345552 32.503169 0.812571454 32.4847742 0.803864849 32.4666348 0.794640797 32.4471484 0.785731713 32.4281032 0.777137597 32.4095458 0.768296006 32.3904077 0.759679392 32.3714787 0.75095029 32.3522942 0.742356173 32.3330168 0.734032029 32.3143665 0.725505406 32.2949961 0.717023778 32.2755794 0.708632141 32.2562323 0.700285499 32.2367458 0.691961355 32.2171897 0.684042169 32.1983535 0.675808016 32.178751 0.667416378 32.1583819 0.659609681 32.1392903 0.651600504 32.1196181 0.643658821 32.0997832 0.635762133 32.0800181 0.627932938 32.0601135 0.620306222 32.0406735 0.612387036 32.0202116 0.604737823 32.0001445 0.597336084 31.9806813 0.589776861 31.9606606 0.582015159 31.9398039 0.574590922 31.9195277 0.567459156 31.8999948 0.56012491 31.879649 0.552835659 31.8592568 0.545636399 31.8389342 0.538459637 31.818449 0.531350368 31.7979174 0.52433109 31.7774323 0.517334309 31.756831 0.510382524 31.7361368 0.503543227 31.7155123 0.496771424 31.6948645 0.48999962 31.6740774 0.483295309 31.6531974 0.476680989 31.6324103 0.470111665 31.6114606 0.463587335 31.5904645 0.457152997 31.5695148 0.450763654 31.5485419 0.444419306 31.5274065 0.438142452 31.5062477 0.431910592 31.4850194 0.425768724 31.4638374 0.419649353 31.4425394 0.413597475 31.4211484 0.407635588 31.39992 0.401561213 31.3779484 0.395734312 31.3564413 0.390064895 31.3354684 0.384148003 31.313311 0.378546079 31.2918271 0.373056643 31.2707381 0.367319733 31.2484645 0.361852795 31.2267019 0.35636336 31.2048697 0.35091892 31.1825961 0.345744452 31.1612981 0.340457495 31.1393265 0.335148041 31.1167974 0.330018569 31.0947329 0.324979087 31.0727845 0.3199846 31.0506968 0.315035109 31.0285161 0.310153111 31.0063819 0.30520362 30.983551 0.300479106 30.9612542 0.29586708 30.9394684 0.291120068 30.9165445 0.286575535 30.8941781 0.282031002 30.8717187 0.27748647 30.848609 0.273121918 30.8260335 0.268802363 30.8034581 0.2645503 30.7808826 0.26036573 30.7581677 0.256203658 30.7354297 0.252019088 30.7120645 0.248059495 30.6892568 0.244099902 30.6664258 0.24014031 30.6429445 0.2363382 30.6199742 0.232603584 30.5969574 0.228913964 30.5739174 0.225291836 30.5508774 0.221714704 30.5277213 0.218115074 30.5039613 0.214717923 30.4807123 0.211320773 30.4574632 0.20794612 30.4336335 0.20472895 30.4102684 0.201534279 30.3868335 0.198339607 30.3628181 0.195347415 30.3393368 0.192332725 30.3158323 0.189453021 30.2922348 0.186550819 30.2686142 0.183716111 30.2443665 0.180926398 30.2200955 0.178316666 30.1963355 0.175706934 30.1725058 0.173209691 30.1486994 0.170712448 30.1248232 0.1682602 30.1002735 0.165875445 30.0757471 0.163670672 30.0517548 0.161443401 30.0276697 0.159328618 30.0035381 0.157236333 29.97936 0.155144049 29.9541135 0.153254243 29.9298426 0.15143193 29.9060826 0.149564622 29.8811845 0.147809803 29.8562632 0.146144974 29.8318297 0.144502643 29.8068155 0.143017795 29.782289 0.14151045 29.7577394 0.140115594 29.7325858 0.13878823 29.7079432 0.137505862 29.6832077 0.136268489 29.6579613 0.135143605 29.6326219 0.134086214 29.6077935 0.133096315 29.5829419 0.132151413 29.5579974 0.131251505 29.5324955 0.130464086 29.5069703 0.129766658 29.4819097 0.129091727 29.4562916 0.128529285 29.4311381 0.127989341 29.4059613 0.127539387 29.3802039 0.127134428 29.3544 0.126864456 29.3290606 0.126594484 29.3037213 0.126414502 29.2777781 0.126302014 29.2517884 0.126302014 29.2263097 1.02620949 29.2263097 1.02620949 29.2497213"></polygon>
                <polygon id="Fill-11" points="40.042508 4.23406452 40.0429579 5.25228387 40.0438578 6.78193548 40.0449827 8.7408 40.0461076 11.0459613 40.0472325 13.6147355 40.0479074 14.9722839 40.0483574 16.364671 40.0488073 17.7816774 40.0492573 19.2130839 40.0497072 20.6482065 40.0501572 22.0770581 40.0503821 23.4894194 40.0506071 24.8745832 40.0506071 26.2224465 40.0506071 27.5226503 40.0503821 28.7648361 40.0501572 29.9386684 40.0501572 30.4967613 40.0499322 31.0339045 40.0494822 31.5487974 40.0492573 32.0401161 40.0490323 32.5066529 40.0485823 32.9470839 40.0481324 33.3601316 40.0476824 33.7444723 40.0472325 34.0988052 40.0465575 34.4219458 40.0461076 34.7125239 40.0454327 34.969169 40.0449827 35.0845781 40.0447577 35.1910219 40.0443078 35.2882916 40.0438578 35.3765032 40.0436328 35.4553548 40.0431829 35.5245445 40.0427329 35.5841652 40.042283 35.6336129 39.1423755 35.625391 39.1428255 35.5766168 39.1432754 35.5181806 39.1437254 35.4498271 39.1439503 35.3719045 39.1444003 35.2844361 39.1448502 35.1875381 39.1450752 35.0815819 39.1455252 34.9666606 39.1462001 34.7102942 39.1466501 34.420111 39.147325 34.0973187 39.1477749 33.7431716 39.1482249 33.3590632 39.1486749 32.9462013 39.1491248 32.5059329 39.1493498 32.039489 39.1495748 31.54824 39.1500247 31.0334632 39.1502497 30.4964361 39.1502497 29.9384129 39.1504747 28.7646735 39.1506996 27.5225806 39.1506996 26.2224697 39.1506996 24.8746761 39.1504747 23.4896516 39.1502497 22.0772903 39.1497997 20.6484387 39.1493498 19.2133161 39.1488998 17.7819097 39.1484499 16.3649032 39.1479999 14.9725161 39.147325 13.6152 39.1462001 11.0464258 39.1450752 8.74126452 39.1439503 6.78263226 39.1430504 5.25274839 39.1426005 4.23452903 39.1423755 3.81042581 39.1423755 3.81019355 40.042283 3.81019355 40.042283 3.80996129"></polygon>
            </g>
        </g>
    </g>
</svg>